<svg xmlns="http://www.w3.org/2000/svg" width="902" height="851.528" viewBox="0 0 902 851.528">
  <g id="resolution5" transform="translate(-100 -2788)">
    <g id="title" transform="translate(58 26)">
      <path id="パス_36" data-name="パス 36" d="M-39.488-27.328c-2.176.576-4.352,1.152-6.528,1.664v-9.472h6.464v-2.752H-3.136v-7.168H-17.472v-9.152h-7.616v9.152H-39.552v2.88h-6.464V-54.144H-53.5v11.968H-61.44v7.04H-53.5v11.328c-3.328.832-6.464,1.536-9.024,2.048l1.856,7.3L-53.5-16.32v13.7c0,.9-.32,1.152-1.152,1.216-.832,0-3.456,0-5.888-.128A29.654,29.654,0,0,1-58.5,5.44c4.48,0,7.552-.192,9.728-1.344,2.112-1.152,2.752-3.008,2.752-6.784V-18.3c2.5-.64,4.992-1.344,7.424-2.048ZM-9.728-1.216a1.028,1.028,0,0,1-.7-.32A6.438,6.438,0,0,1-10.624-3.9v-27.84H-33.472v12.416c0,6.464-.96,13.952-9.728,19.2A31.4,31.4,0,0,1-38.336,5.5c10.048-6.144,12.1-16.512,12.1-24.64v-5.7h8.256V-3.776c0,4.736.512,6.208,1.728,7.36a6.286,6.286,0,0,0,4.48,1.664h3.712a7.655,7.655,0,0,0,3.9-.9,5.441,5.441,0,0,0,2.3-3.328,52.649,52.649,0,0,0,.832-8.768,19.029,19.029,0,0,1-5.952-3.2c0,3.456-.064,6.208-.192,7.488C-7.3-2.3-7.424-1.792-7.68-1.536a1.266,1.266,0,0,1-.9.32Zm38.4-3.328h6.464v-7.424a42.361,42.361,0,0,0,9.472,7.232,27.366,27.366,0,0,1,4.224-4.8,34.935,34.935,0,0,1-10.752-6.72h9.664v-5.5H35.136v-3.584A83.122,83.122,0,0,0,45.568-27.2l-4.416-4.224c-5.44,1.408-15.1,2.368-23.36,2.624a21.418,21.418,0,0,1,1.6,4.544c2.944-.064,6.144-.192,9.28-.448v2.944H16.256v5.5h9.408A32.835,32.835,0,0,1,14.656-9.408a22.6,22.6,0,0,1,4.1,4.8,38.917,38.917,0,0,0,9.92-7.232ZM49.792-32V-3.2H14.272V-32ZM7.04,5.568h7.232V3.392h35.52V5.568H57.28v-43.9H7.04ZM46.208-50.688v-3.456H38.592v3.456H25.152v-3.456H17.664v3.456H3.648V-44.1H17.664v3.968h7.488V-44.1h13.44v3.968h7.616V-44.1h14.08v-6.592Z" transform="translate(106 2821)" fill="#333"/>
      <line id="線_4" data-name="線 4" y1="64" transform="translate(179 2762)" fill="none" stroke="#56ddff" stroke-width="10"/>
      <path id="パス_35" data-name="パス 35" d="M-290.928-39.984V-2.976c0,.912-.384,1.248-1.44,1.248-1.056.048-4.608.048-7.728-.1a25.685,25.685,0,0,1,2.256,5.952c4.656,0,7.92-.192,10.176-1.1,2.112-.912,2.928-2.5,2.928-6V-39.984ZM-279.5-27.456c3.792,7.008,7.44,16.032,8.4,21.84l6.24-2.448c-1.2-6-5.136-14.688-9.024-21.5Zm-24-1.584c-1.008,6.24-3.408,14.64-7.248,19.488a48.077,48.077,0,0,1,5.568,2.976c3.984-5.28,6.576-14.208,8.208-21.36Zm63.84-5.04c.288.816.576,1.824.96,2.928a100.482,100.482,0,0,1-18.432-.672l.1,6.144a128.715,128.715,0,0,0,20.5.192,63.074,63.074,0,0,0,4.512,8.688c-1.488-.1-4.656-.384-7.008-.576l-.48,5.088c4.032.336,10.08.96,12.768,1.488l2.976-4.32a30.264,30.264,0,0,1-2.592-3.216,52.575,52.575,0,0,1-4.272-7.824,63.839,63.839,0,0,0,8.544-1.728l-.768-6.048a72.284,72.284,0,0,1-9.84,2.208,56.134,56.134,0,0,1-2.016-7.536l-6.48.768C-240.576-36.912-240.048-35.184-239.664-34.08Zm-7.872,18.624-6-1.392c-1.632,3.264-2.544,6-2.544,8.928,0,6.912,6.192,10.7,15.984,10.752A67.716,67.716,0,0,0-227.184,1.68l.336-6.048a66.294,66.294,0,0,1-12.864,1.152c-6.576,0-10.176-1.728-10.176-5.76A11.564,11.564,0,0,1-247.536-15.456Zm54.192-23.184-6.624-.672a40.363,40.363,0,0,1-1.3,8.016c-1.488.144-2.928.192-4.368.192a60.639,60.639,0,0,1-6.384-.336l.432,5.568c2.064.144,4.032.192,6,.192.816,0,1.632,0,2.5-.048A75.625,75.625,0,0,1-212.88-8.784l5.808,2.976A88.444,88.444,0,0,0-196.8-26.352a83.273,83.273,0,0,0,8.4-1.68l-.192-5.568a58.845,58.845,0,0,1-6.48,1.536C-194.352-34.656-193.728-37.1-193.344-38.64Zm-2.5,33.216c0-1.68,1.776-2.928,4.56-2.928a17.244,17.244,0,0,1,3.888.48v.96c0,2.64-1.008,4.464-4.32,4.464C-194.352-2.448-195.84-3.648-195.84-5.424Zm13.728-18.288h-6c.1,2.928.336,7.2.528,10.752-1.1-.1-2.16-.192-3.312-.192-6.672,0-10.608,3.6-10.608,8.3,0,5.28,4.7,7.92,10.656,7.92,6.816,0,9.264-3.456,9.264-7.92v-.48A40.692,40.692,0,0,1-175.1-.192l3.216-5.136a31.389,31.389,0,0,0-9.936-6.144c-.1-2.4-.24-4.7-.288-6.1C-182.16-19.68-182.256-21.7-182.112-23.712Zm8.256,2.544,3.408-5.04A82.682,82.682,0,0,0-182.3-32.736l-3.072,4.752A69.278,69.278,0,0,1-173.856-21.168Zm51.888,1.44h-19.008V-22.8a74.719,74.719,0,0,0,15.36-11.952l-4.368-3.264-1.3.288h-29.712v5.616h23.76a58.381,58.381,0,0,1-6.864,4.8h-2.832v7.584h-19.056v5.712h19.056V-2.592c0,.864-.336,1.1-1.344,1.1-1.1,0-4.8,0-8.112-.144a25.869,25.869,0,0,1,2.4,5.9c4.368.048,7.728-.1,9.984-1.008,2.3-.912,3.024-2.448,3.024-5.76v-11.52h19.008ZM-108.24-40.56a50.19,50.19,0,0,1-10.944,17.952,33.411,33.411,0,0,1,3.072,5.952c1.008-1.1,2.016-2.256,3.024-3.552V4.128h5.616V-28.9a88.034,88.034,0,0,0,4.56-9.984ZM-97.056-8.736A29.834,29.834,0,0,1-105.744.432a31.866,31.866,0,0,1,4.464,3.6A44.3,44.3,0,0,0-91.728-7.1Zm10.464,2.448a54.9,54.9,0,0,1,7.92,10.416l4.8-3.024a59.435,59.435,0,0,0-8.16-9.888Zm-6.192-19.536h6.96v9.552h-6.96Zm12.528,9.552v-9.552h6.24V-31.3h-6.24V-40.32h-5.568V-31.3h-6.96v-8.976h-5.568V-31.3h-5.232v5.472h5.232v9.552h-6.432V-10.7h31.152v-5.568ZM-27.5-16.9c0-10.464-7.488-18.72-19.392-18.72-12.432,0-22.032,9.456-22.032,20.544,0,8.112,4.416,13.968,9.744,13.968,5.232,0,9.36-5.952,12.24-15.648a97.073,97.073,0,0,0,2.88-13.008c6.48,1.1,10.08,6.048,10.08,12.672,0,7.008-4.8,11.424-10.944,12.864a36.918,36.918,0,0,1-4.464.768l3.6,5.712C-33.7.384-27.5-6.768-27.5-16.9Zm-35.28,1.2c0-5.28,4.272-12.288,12.192-13.92A72.049,72.049,0,0,1-53.136-18c-1.968,6.48-3.84,9.5-5.856,9.5C-60.864-8.5-62.784-10.848-62.784-15.7ZM15.408-32.64v2.112H12.1V-32.64Zm0,8.544H12.1v-2.256h3.312ZM6.96-30.528H-2.16v4.176H6.96V-24.1h-6v4.128h6v2.256H.384v4.128H6.96v2.352H-.816V-7.1H6.96v4.368H12.1V-7.1h9.552v-4.128H12.1v-2.352h8.4v-4.128H12.1v-2.256h8.112v-6.384H22.56v-4.176H20.208v-6.24H12.1V-40.32H6.96v3.552h-6v4.128h6Zm-19.968.384c.72-1.632,1.392-3.264,2.016-4.944v2.88h3.84c-1.584,4.08-3.744,9.36-5.616,13.536l4.656,1.056.864-1.968h2.3a53.241,53.241,0,0,1-1.68,8.5,33.239,33.239,0,0,1-1.584-5.52l-4.32,1.248a38.429,38.429,0,0,0,3.5,10.032,14.8,14.8,0,0,1-3.984,4.8Zm10.176,6.336-.864.1H-5.472c1.824-4.32,3.6-8.784,4.9-12.384l-3.552-.912-.816.192h-5.424l.72-2.16-5.088-1.536c-1.872,6.576-5.04,13.1-8.592,17.376a36.342,36.342,0,0,1,2.5,6.192A42.827,42.827,0,0,0-18-20.832V4.08h4.992V.24A18.662,18.662,0,0,1-10.32,4.08,20.417,20.417,0,0,0-5.712-1.008C-2.016,2.5,2.88,3.5,9.168,3.5h12a17.155,17.155,0,0,1,1.776-5.136c-2.688.1-11.28.1-13.488.1-5.28-.048-9.6-.912-12.768-4.176C-1.44-10.368-.336-16.176.144-23.28ZM54-19.248h6.624V-16.9H54Zm0-6.192h6.624v2.208H54ZM66.048-13.1v-6.144H70.32v-3.984H66.048v-6H54v-2.352H69.792v-4.992H52.464v-4.032H46.512v4.032H29.376v13.92c0,7.056-.288,17.04-4.224,23.9a21.62,21.62,0,0,1,4.608,3.12c4.32-7.44,5.04-19.248,5.04-27.024v-8.928H48.48v2.352H38.448v3.792H48.48v2.208H35.712v3.984H48.48V-16.9H37.92V-13.1h.672l-2.928,2.88a42.421,42.421,0,0,1,6.768,4.608L45.7-8.976A37.16,37.16,0,0,0,39.024-13.1H48.48V-1.488c0,.768-.24,1.008-1.1,1.008-.624.048-2.592.048-4.608-.048,1.44-.672,2.928-1.344,4.368-2.064l-1.008-4.08C41.52-4.9,36.816-3.12,33.648-2.16l2.64,4.56C37.92,1.728,39.7.912,41.52.048a18.022,18.022,0,0,1,1.44,4.176c3.936,0,6.672-.048,8.5-.816C53.328,2.64,54,1.392,54-1.44V-6.1A23.911,23.911,0,0,0,66.1,3.648,21.831,21.831,0,0,1,69.552-.96,22.284,22.284,0,0,1,61.2-5.28c2.3-1.2,4.9-2.736,7.248-4.272l-4.176-3.36a52.355,52.355,0,0,1-6.144,4.464A21.561,21.561,0,0,1,55.392-13.1ZM93.84-37.584l-7.152-.72A48.85,48.85,0,0,1,85.68-28.176c-2.448.24-4.7.384-6.192.432a45.833,45.833,0,0,1-5.136,0l.576,6.528c1.488-.24,3.984-.576,5.376-.816.864-.1,2.4-.288,4.128-.48C82.656-15.936,79.344-6.24,74.688.048l6.24,2.5C85.344-4.512,88.9-15.888,90.72-23.184c1.392-.1,2.592-.192,3.36-.192,2.976,0,4.656.528,4.656,4.368,0,4.752-.672,10.56-1.968,13.3a3.52,3.52,0,0,1-3.6,2.064,27.737,27.737,0,0,1-5.856-1.008L88.32,1.68a31.544,31.544,0,0,0,5.76.672c3.648,0,6.288-1.056,7.872-4.416,2.064-4.176,2.736-11.952,2.736-17.616,0-6.912-3.6-9.168-8.688-9.168-1.008,0-2.4.1-4.032.192.336-1.728.72-3.5,1.008-4.944C93.216-34.8,93.552-36.336,93.84-37.584Zm21.36-3.984-3.84,1.536a54.288,54.288,0,0,1,3.888,6.624l3.792-1.632A63.856,63.856,0,0,0,115.2-41.568Zm-5.712,2.16L105.7-37.824a53.07,53.07,0,0,1,3.264,5.664l-4.32,1.872c3.408,4.224,6.816,12.672,8.064,18l6.1-2.784a87.1,87.1,0,0,0-7.824-16.752l2.352-1.008C112.416-34.608,110.688-37.632,109.488-39.408ZM143.28-16.992a31.4,31.4,0,0,1-4.224,6.192c-2.736-1.728-5.52-3.36-8.016-4.656l-4.08,3.744c2.544,1.44,5.328,3.12,8.064,4.944A42.484,42.484,0,0,1,122.88.48,33.374,33.374,0,0,1,127.1,4.944,53.73,53.73,0,0,0,139.632-3.5a51.527,51.527,0,0,1,7.1,6.192l4.56-4.32a58.672,58.672,0,0,0-7.584-6.144,41.252,41.252,0,0,0,5.088-7.392Zm-15.6-5.04a38.187,38.187,0,0,0,4.848-6.432v4.032h27.7V-29.04h-27.36c.432-.72.864-1.488,1.248-2.256h30.48v-4.752H136.224c.432-1.152.816-2.352,1.2-3.552l-5.952-1.248C129.6-34.224,126-28.032,121.248-24.432a47.03,47.03,0,0,1,5.184,3.6l.432-.384v3.984h25.728c.288,12.288,1.68,21.456,8.688,21.456,3.7,0,4.7-2.544,5.136-8.544a23.118,23.118,0,0,1-3.7-3.552c-.1,3.888-.288,6.384-1.008,6.432-2.784,0-3.408-9.072-3.312-20.592ZM189.5-33.552v6.144a128.83,128.83,0,0,0,20.64,0V-33.6A98.7,98.7,0,0,1,189.5-33.552Zm3.84,20.5-5.52-.528a29.325,29.325,0,0,0-.816,6.24c0,4.944,3.984,7.872,12.24,7.872a67.978,67.978,0,0,0,12.384-.912l-.1-6.48a56.741,56.741,0,0,1-12.048,1.248c-4.9,0-6.72-1.3-6.72-3.408A16.293,16.293,0,0,1,193.344-13.056ZM182.112-36.768l-6.72-.576c-.048,1.536-.336,3.36-.48,4.7-.528,3.7-2.016,11.808-2.016,19.008a61.359,61.359,0,0,0,1.872,15.7l5.568-.384c-.048-.672-.1-1.44-.1-1.968a14.484,14.484,0,0,1,.24-2.256c.528-2.544,2.112-7.776,3.456-11.76l-2.976-2.352c-.672,1.584-1.44,3.264-2.16,4.9a23.159,23.159,0,0,1-.192-3.12c0-4.8,1.68-14.4,2.3-17.616C181.1-33.36,181.728-35.76,182.112-36.768Zm56.544-1.872-6.624-.672a40.363,40.363,0,0,1-1.3,8.016c-1.488.144-2.928.192-4.368.192a60.639,60.639,0,0,1-6.384-.336l.432,5.568c2.064.144,4.032.192,6,.192.816,0,1.632,0,2.5-.048A75.625,75.625,0,0,1,219.12-8.784l5.808,2.976A88.444,88.444,0,0,0,235.2-26.352a83.273,83.273,0,0,0,8.4-1.68l-.192-5.568a58.845,58.845,0,0,1-6.48,1.536C237.648-34.656,238.272-37.1,238.656-38.64Zm-2.5,33.216c0-1.68,1.776-2.928,4.56-2.928a17.244,17.244,0,0,1,3.888.48v.96c0,2.64-1.008,4.464-4.32,4.464C237.648-2.448,236.16-3.648,236.16-5.424Zm13.728-18.288h-6c.1,2.928.336,7.2.528,10.752-1.1-.1-2.16-.192-3.312-.192-6.672,0-10.608,3.6-10.608,8.3,0,5.28,4.7,7.92,10.656,7.92,6.816,0,9.264-3.456,9.264-7.92v-.48A40.692,40.692,0,0,1,256.9-.192l3.216-5.136a31.389,31.389,0,0,0-9.936-6.144c-.1-2.4-.24-4.7-.288-6.1C249.84-19.68,249.744-21.7,249.888-23.712Zm8.256,2.544,3.408-5.04A82.682,82.682,0,0,0,249.7-32.736l-3.072,4.752A69.279,69.279,0,0,1,258.144-21.168Zm24.576,15.5c0-1.2,1.152-2.3,2.976-2.3,2.592,0,4.368,2.016,4.656,5.136a25.059,25.059,0,0,1-2.784.144C284.688-2.688,282.72-3.888,282.72-5.664Zm-8.16-30.912.192,6.24c1.1-.144,2.64-.288,3.936-.384,2.544-.144,9.168-.432,11.616-.48-2.352,2.064-7.344,6.1-10.032,8.3-2.832,2.352-8.64,7.248-12.048,9.984L272.592-8.4c5.136-5.856,9.936-9.744,17.28-9.744,5.664,0,9.984,2.928,9.984,7.248a6.957,6.957,0,0,1-3.984,6.528c-.672-4.56-4.272-8.208-10.224-8.208-5.088,0-8.592,3.6-8.592,7.488,0,4.8,5.04,7.872,11.712,7.872,11.616,0,17.376-6,17.376-13.584,0-7.008-6.192-12.1-14.352-12.1a18.751,18.751,0,0,0-4.56.528c3.024-2.4,8.064-6.624,10.656-8.448,1.1-.816,2.256-1.488,3.36-2.208l-3.12-4.272a20.972,20.972,0,0,1-3.648.528c-2.736.24-13.008.432-15.552.432A33.311,33.311,0,0,1,274.56-36.576Z" transform="translate(504 2814)" fill="#333"/>
    </g>
    <rect id="長方形_19" data-name="長方形 19" width="902" height="600" transform="translate(100 2887.5)" fill="#fff"/>
    <path id="パス_34" data-name="パス 34" d="M30.208-22.208h-7.52V-26.88H19.712v4.672h-7.36v2.816H30.208ZM12.576-10.56l-.384-2.784c-1.152.352-2.336.672-3.488.992v-5.536h3.424V-20.64H8.7v-6.208H5.792v6.208H1.472v2.752h4.32v6.336c-1.792.48-3.456.9-4.8,1.184l.736,2.912L5.792-8.608V-.832c0,.48-.192.608-.608.608-.416.032-1.728.032-3.072-.032a10.178,10.178,0,0,1,.832,2.72,11.266,11.266,0,0,0,4.48-.48C8.384,1.5,8.7.7,8.7-.832V-9.44ZM27.008-.128a.7.7,0,0,1-.512-.16c-.16-.128-.192-.576-.192-1.344V-15.84H15.456v6.272c0,3.264-.512,7.136-4.928,9.888a10.443,10.443,0,0,1,1.888,2.208c4.928-3.1,5.856-8.128,5.856-12.064v-3.616h5.184V-1.7c0,2.3.224,2.944.768,3.424a3.1,3.1,0,0,0,2.016.7h1.792a4.132,4.132,0,0,0,1.824-.384A2.4,2.4,0,0,0,30.88.448a27.772,27.772,0,0,0,.352-4.416A6.851,6.851,0,0,1,28.9-5.216c0,1.824-.032,3.232-.1,3.9a2.031,2.031,0,0,1-.32,1.024,1.26,1.26,0,0,1-.64.16ZM46.656-2.08h2.56v-4.8a20.822,20.822,0,0,0,5.728,4.512,9.11,9.11,0,0,1,1.664-1.856,19.7,19.7,0,0,1-6.24-4.384h5.824v-2.176H49.216v-2.3a48.74,48.74,0,0,0,5.568-1.024L52.928-15.84A67.986,67.986,0,0,1,40.768-14.3a9.391,9.391,0,0,1,.608,1.824c1.664-.064,3.488-.16,5.28-.352v2.048H39.84v2.176h5.632a17.891,17.891,0,0,1-6.3,4.416A13.266,13.266,0,0,1,40.832-2.3a20.031,20.031,0,0,0,5.824-4.48ZM57.408-16.448V-1.216H38.624V-16.448ZM35.84,2.528h2.784V1.344H57.408V2.528H60.32v-21.5H35.84ZM54.688-24.9v-1.952H51.712V-24.9H44.16v-1.952H41.216V-24.9H33.984v2.624h7.232v2.3H44.16v-2.3h7.552v2.3h2.976v-2.3h7.328V-24.9ZM80-15.872a3.715,3.715,0,0,0-3.712,3.712A3.715,3.715,0,0,0,80-8.448a3.715,3.715,0,0,0,3.712-3.712A3.715,3.715,0,0,0,80-15.872Zm46.208-6.336h-7.52V-26.88h-2.976v4.672h-7.36v2.816h17.856ZM108.576-10.56l-.384-2.784c-1.152.352-2.336.672-3.488.992v-5.536h3.424V-20.64H104.7v-6.208h-2.912v6.208h-4.32v2.752h4.32v6.336c-1.792.48-3.456.9-4.8,1.184l.736,2.912,4.064-1.152V-.832c0,.48-.192.608-.608.608-.416.032-1.728.032-3.072-.032a10.178,10.178,0,0,1,.832,2.72,11.266,11.266,0,0,0,4.48-.48c.96-.48,1.28-1.28,1.28-2.816V-9.44ZM123.008-.128a.7.7,0,0,1-.512-.16c-.16-.128-.192-.576-.192-1.344V-15.84H111.456v6.272c0,3.264-.512,7.136-4.928,9.888a10.443,10.443,0,0,1,1.888,2.208c4.928-3.1,5.856-8.128,5.856-12.064v-3.616h5.184V-1.7c0,2.3.224,2.944.768,3.424a3.1,3.1,0,0,0,2.016.7h1.792a4.132,4.132,0,0,0,1.824-.384,2.4,2.4,0,0,0,1.024-1.6,27.773,27.773,0,0,0,.352-4.416A6.851,6.851,0,0,1,124.9-5.216c0,1.824-.032,3.232-.1,3.9a2.031,2.031,0,0,1-.32,1.024,1.26,1.26,0,0,1-.64.16Zm22.72-25.728h-3.872a14.517,14.517,0,0,1,.224,2.656v2.752H135.1a30.407,30.407,0,0,1-3.1-.16,23.822,23.822,0,0,1,.128,2.592v5.6c0,.7-.064,1.632-.128,2.3h3.488a14.686,14.686,0,0,1-.128-2.112v-5.248h17.024A22.2,22.2,0,0,1,149.44-8.64a16.454,16.454,0,0,1-8.064,6.016,20.091,20.091,0,0,1-3.84,1.056l2.624,3.04C145.92-.1,150.528-3.392,152.992-7.84a29.765,29.765,0,0,0,3.072-9.376,12.03,12.03,0,0,1,.544-2.176L154.4-20.768a7.026,7.026,0,0,1-2.4.32h-6.464V-23.2A22.892,22.892,0,0,1,145.728-25.856Zm16.7,13.92L164-8.768a65.471,65.471,0,0,0,11.808-4.96V-2.592a37.079,37.079,0,0,1-.192,3.776h3.968a24.064,24.064,0,0,1-.224-3.776v-13.28a53.982,53.982,0,0,0,8.608-7.008l-2.688-2.56a39.5,39.5,0,0,1-8.9,7.616A52.842,52.842,0,0,1,162.432-11.936ZM208.48-.7l2.112,1.76a9.948,9.948,0,0,1,1.216-.8A33.67,33.67,0,0,0,222.72-8.576l-1.952-2.752a22.512,22.512,0,0,1-8.7,7.36v-17.7a19.273,19.273,0,0,1,.16-2.56h-3.712a23.453,23.453,0,0,1,.192,2.56V-2.72A9.229,9.229,0,0,1,208.48-.7ZM193.728-.992,196.8,1.056a17.978,17.978,0,0,0,5.7-8.96c.864-3.2.992-10.016.992-13.664a23.954,23.954,0,0,1,.16-2.56h-3.712a9.972,9.972,0,0,1,.256,2.592c0,3.68,0,9.92-.928,12.768A14.812,14.812,0,0,1,193.728-.992ZM250.08-21.536,248-23.072a9.706,9.706,0,0,1-2.784.32H233.344a34.237,34.237,0,0,1-3.488-.224v3.616c.512-.032,2.24-.192,3.488-.192h11.744A26.327,26.327,0,0,1,240-11.1a35.956,35.956,0,0,1-13.152,9.376L229.44.992a42.008,42.008,0,0,0,12.32-9.216,71.814,71.814,0,0,1,8.48,9.344l2.816-2.5a85.056,85.056,0,0,0-9.152-9.376,43.8,43.8,0,0,0,5.248-9.12A11.046,11.046,0,0,1,250.08-21.536Zm9.088,9.76a40.579,40.579,0,0,0,1.5-8.7L258.5-20.8a36.317,36.317,0,0,1-1.6,8.256Zm19.488,10.4V-8.64h6.208v-2.784h-6.208V-17.44h6.912v-2.816h-6.912V-26.72H275.68v6.464h-3.36a43.1,43.1,0,0,0,.96-4.672l-2.912-.48a37.669,37.669,0,0,1-2.112,8.512,28.679,28.679,0,0,0-2.08-4.8l-1.888.768v-5.92h-2.976V2.5h2.976V-20.448a29.116,29.116,0,0,1,1.92,5.024L268-16.288a14.224,14.224,0,0,1-1.184,2.208,17.316,17.316,0,0,1,2.656,1.376,28.78,28.78,0,0,0,2.048-4.736h4.16v6.016h-6.5V-8.64h6.5v7.264h-8.9V1.44H286.4V-1.376ZM304-17.024a2.617,2.617,0,0,0,2.688-2.656A2.644,2.644,0,0,0,304-22.368a2.644,2.644,0,0,0-2.688,2.688A2.617,2.617,0,0,0,304-17.024Zm0,15.488a2.61,2.61,0,0,0,2.688-2.624A2.624,2.624,0,0,0,304-6.848a2.624,2.624,0,0,0-2.688,2.688A2.61,2.61,0,0,0,304-1.536ZM331.328-25.12l-4.1-.032a18.518,18.518,0,0,1,.352,3.712c0,3.072-.32,11.328-.32,15.872,0,5.312,3.264,7.392,8.128,7.392a16.25,16.25,0,0,0,13.6-7.168L346.72-8.128c-2.3,3.424-5.664,6.592-11.264,6.592-2.784,0-4.864-1.152-4.864-4.544,0-4.416.224-11.808.384-15.36A29.179,29.179,0,0,1,331.328-25.12Zm25.568,12,1.344,3.328c2.336-.992,9.056-3.776,12.928-3.776,3.04,0,5.056,1.856,5.056,4.448,0,4.832-5.792,6.784-12.9,7.008l1.344,3.1c9.28-.576,14.848-4.064,14.848-10.08,0-4.576-3.328-7.392-8.1-7.392-3.808,0-9.152,1.856-11.36,2.56C359.072-13.632,357.824-13.28,356.9-13.12Zm50.048-10.24-2.976-2.656a18.738,18.738,0,0,1-2.08,2.4c-2.176,2.144-6.816,5.856-9.28,7.9-3.04,2.528-3.36,4.064-.256,6.656,2.976,2.5,7.744,6.592,9.888,8.768.832.832,1.664,1.728,2.432,2.592l2.912-2.656c-3.328-3.328-9.152-7.968-11.872-10.208-1.888-1.632-1.888-2.048-.064-3.616,2.272-1.92,6.688-5.408,8.832-7.2C405.12-21.888,406.144-22.752,406.944-23.36Zm16.7.8-3.9-.064A16.37,16.37,0,0,1,420-19.616c0,1.92.032,5.76.352,8.576.864,8.416,3.84,11.488,7.072,11.488,2.336,0,4.32-1.888,6.336-7.36l-2.528-2.976c-.736,2.912-2.144,6.4-3.744,6.4-2.144,0-3.456-3.392-3.936-8.416a71.642,71.642,0,0,1-.224-7.2A26.194,26.194,0,0,1,423.648-22.56Zm16.384.8L436.864-20.7c3.232,3.84,5.056,10.944,5.6,16.448l3.3-1.28C445.344-10.72,442.976-18.048,440.032-21.76Zm37.28,10.528c0-6.688-4.864-12.064-12.544-12.064-8.032,0-14.3,6.144-14.3,13.312,0,5.344,2.912,8.864,6.08,8.864s5.824-3.616,7.744-10.144a63.718,63.718,0,0,0,1.92-8.992c4.928.608,7.744,4.288,7.744,8.928,0,5.152-3.648,8.16-7.744,9.088a19.778,19.778,0,0,1-2.848.448l1.888,3.008C473.024.1,477.312-4.512,477.312-11.232ZM453.7-10.3c0-3.968,3.36-8.96,9.12-9.888a50.947,50.947,0,0,1-1.76,8.256c-1.472,4.928-2.976,7.008-4.416,7.008C455.264-4.928,453.7-6.624,453.7-10.3ZM497.632-1.44V-8.512h9.6v-2.88h-9.6V-17.76H508.64v-2.912H498.464l1.568-1.12a35.653,35.653,0,0,0-5.984-5.024l-2.432,1.7a37.365,37.365,0,0,1,5.152,4.448h-13.44v2.912h11.04v6.368h-9.5v2.88h9.5V-1.44h-12.48V1.472H510.24V-1.44Zm26.112-5.376a19.009,19.009,0,0,1-5.952,6.208,18.246,18.246,0,0,1,2.5,1.76,26.247,26.247,0,0,0,6.3-7.136Zm.7-6.112h12.16v2.5h-12.16Zm0-4.608h12.16V-15.1h-12.16ZM539.68-8.16V-19.84H531.3c.288-.832.576-1.76.832-2.688h10.016v-2.72h-26.08V-16c0,5.024-.224,12.032-2.976,16.96a12.324,12.324,0,0,1,2.624,1.472c2.848-5.184,3.3-13.056,3.3-18.4v-6.56h9.6c-.128.832-.32,1.792-.544,2.688h-6.528V-8.16h7.52V-.576c0,.384-.128.512-.576.512-.48,0-2.08,0-3.744-.032a11.567,11.567,0,0,1,.9,2.624c2.336,0,3.936,0,4.992-.448C531.68,1.7,531.936.9,531.936-.512V-8.16Zm-5.5,2.624a34,34,0,0,1,6.08,6.5l2.432-1.6a35.8,35.8,0,0,0-6.208-6.3Zm32.7-15.392a25.812,25.812,0,0,0-5.056-3.872l-1.5,2.016a23.16,23.16,0,0,1,4.992,4.128ZM565.5-13.312a26.762,26.762,0,0,0-5.344-3.616l-1.408,2.144a24.525,24.525,0,0,1,5.28,3.872Zm-9.568-11.68a56.619,56.619,0,0,1-1.952,7.3l1.92.608c.8-1.856,1.792-4.832,2.592-7.328Zm-6.4,7.264a32.636,32.636,0,0,0-1.76-7.136l-2.144.544a31.2,31.2,0,0,1,1.6,7.232Zm3.744,4.288h4.992v-2.784H553.28V-26.688H550.5v10.464h-4.96v2.784H549.6a31.621,31.621,0,0,1-4.608,9.184,15.916,15.916,0,0,1,1.44,2.976A33.237,33.237,0,0,0,550.5-9.76V2.5h2.784V-9.728c1.056,1.7,2.272,3.712,2.816,4.864L557.984-7.2c-.672-.96-3.744-4.864-4.7-5.888Zm21.6,6.432-.416-2.72-3.552.608v-17.7h-2.784V-8.608l-9.952,1.792.48,2.752,9.472-1.728v8.32h2.784V-6.3ZM578.4-21.44l.32,3.488c3.584-.768,11.04-1.536,14.272-1.856a12.836,12.836,0,0,0-5.44,10.4c0,7.04,6.56,10.4,12.832,10.72l1.152-3.424c-5.28-.224-10.72-2.176-10.72-8a10.61,10.61,0,0,1,7.072-9.632,30.837,30.837,0,0,1,6.24-.448v-3.232c-2.208.064-5.408.256-8.832.544-5.888.512-11.584,1.056-13.92,1.28C580.736-21.536,579.616-21.472,578.4-21.44Zm21.12,4.8-1.92.832a30.253,30.253,0,0,1,2.56,4.48l1.984-.9A44.673,44.673,0,0,0,599.52-16.64Zm3.552-1.376-1.92.864a30.03,30.03,0,0,1,2.688,4.416l1.952-.928A46.216,46.216,0,0,0,603.072-18.016ZM623.1-25.5l-3.3-.1a16.921,16.921,0,0,1-.1,1.7c-.064.64-.16,1.344-.224,2.144h-1.76a45.1,45.1,0,0,1-5.568-.416l.1,2.976c1.376.064,3.872.224,5.376.224H619.2c-.128,1.376-.256,2.88-.32,4.352-4.448,2.08-7.968,6.336-7.968,10.464,0,2.944,1.824,4.288,4.032,4.288a11.013,11.013,0,0,0,5.216-1.536c.16.576.32,1.088.48,1.568L623.552-.7c-.256-.8-.544-1.632-.768-2.528a25.256,25.256,0,0,0,6.944-10.08,5.289,5.289,0,0,1,4.064,5.056c0,3.68-3.136,6.72-9.088,7.392l1.728,2.656C634.048.608,636.9-3.552,636.9-8.128c0-3.616-2.432-6.528-6.3-7.68.224-.576.48-1.376.672-1.792l-3.136-.768a16.854,16.854,0,0,1-.384,2.08,8.688,8.688,0,0,0-.928-.032,20.74,20.74,0,0,0-5.12.7c.1-1.184.192-2.368.288-3.456a97.221,97.221,0,0,0,11.456-1.184l-.032-2.976a58.5,58.5,0,0,1-11.072,1.376c.128-.768.256-1.5.384-2.112A13.463,13.463,0,0,1,623.1-25.5ZM621.6-12.1v-.768a14.914,14.914,0,0,1,5.088-.9h.224a20.876,20.876,0,0,1-4.832,7.3A33.907,33.907,0,0,1,621.6-12.1Zm-7.68,7.36c0-2.3,2.016-5.12,4.864-6.848a41.654,41.654,0,0,0,.7,7.232,7.471,7.471,0,0,1-3.872,1.408C614.464-2.944,613.92-3.552,613.92-4.736Zm37.792,1.184a2.127,2.127,0,0,1,2.336-1.824c2.112,0,3.52,1.632,3.776,3.968a17.052,17.052,0,0,1-2.272.128C653.28-1.28,651.712-2.144,651.712-3.552ZM647.04-23.936l.1,3.3c.736-.1,1.568-.16,2.368-.192,1.664-.1,7.2-.352,8.9-.416-1.6,1.408-5.312,4.48-7.1,5.952-1.888,1.568-5.888,4.928-8.384,6.976l2.336,2.368c3.776-4.032,6.784-6.432,11.9-6.432,4,0,6.944,2.176,6.944,5.184A5.2,5.2,0,0,1,660.7-2.176a6.315,6.315,0,0,0-6.656-5.6c-3.168,0-5.28,2.144-5.28,4.512,0,2.912,2.944,4.864,7.36,4.864,7.2,0,11.264-3.648,11.264-8.736,0-4.48-3.968-7.776-9.312-7.776a13.257,13.257,0,0,0-3.84.544c2.272-1.856,6.208-5.184,7.84-6.4.672-.512,1.344-.96,2.016-1.376l-1.76-2.3a9.541,9.541,0,0,1-2.048.288c-1.728.16-9.024.352-10.688.352A23.243,23.243,0,0,1,647.04-23.936Zm51.84-2.08a36.031,36.031,0,0,1-3.136,6.048l2.56,1.024a47.967,47.967,0,0,0,3.424-5.984ZM676.512,2.272c1.664-3.072,3.52-6.944,4.992-10.336l-2.176-1.824a97.083,97.083,0,0,1-5.44,10.24ZM680.384-14.5a25.142,25.142,0,0,0-5.728-3.616L672.96-16a26.914,26.914,0,0,1,5.632,3.808Zm-5.952-9.952a24.807,24.807,0,0,1,5.472,3.872l1.856-2.3a24.271,24.271,0,0,0-5.568-3.616Zm14.208,4.384a24.614,24.614,0,0,0-3.232-5.76L682.88-24.7a23.511,23.511,0,0,1,3.072,5.952Zm-1.92,13.44V-9.632h10.816v3.008Zm10.816-8.48v2.944H686.72V-15.1Zm2.912-2.784h-6.72v-8.96H690.72v8.96h-6.912V2.528h2.912V-4.1h10.816V-.96c0,.448-.16.576-.64.608s-2.208.032-3.84-.064a12.091,12.091,0,0,1,.928,2.816c2.432,0,4.064-.032,5.088-.512,1.056-.448,1.376-1.28,1.376-2.816Zm28.1,6.848v8.608H714.432V-11.04Zm5.024-10.56v-2.944H705.856V-21.6h8.736c-1.856,5.408-5.312,11.1-10.112,14.56a15.506,15.506,0,0,1,2.08,2.272,26.378,26.378,0,0,0,4.864-4.768V2.56h3.008V.448h14.112V2.464h3.136V-13.888H714.4a46.786,46.786,0,0,0,3.616-7.712Zm9.152-.576h23.04v-2.88H739.744v9.632c0,4.9-.256,11.712-2.976,16.448a13.041,13.041,0,0,1,2.592,1.5c2.912-5.056,3.36-12.736,3.36-17.952ZM760.544-9.12a65.885,65.885,0,0,0,4.32-7.1l-3.04-1.12a42.489,42.489,0,0,1-3.872,7.136Zm-15.136.768c2.144-1.824,3.1-4.9,3.712-7.872l-2.688-.7a12.663,12.663,0,0,1-3.488,7.2Zm6.72-12.48C751.9-10.656,751.712-3.36,741.856.192a8.927,8.927,0,0,1,1.792,2.336c6.336-2.368,9.088-6.336,10.336-11.52C755.616-3.3,758.592.448,764.32,2.5a10.354,10.354,0,0,1,1.824-2.56c-7.744-2.368-10.176-8.48-11.136-17.952.032-.9.064-1.856.1-2.816ZM782.336-4c0-1.376,1.5-2.3,3.648-2.3a10.313,10.313,0,0,1,2.976.448v.864c0,2.016-.736,3.232-3.1,3.232C783.808-1.76,782.336-2.5,782.336-4Zm9.6-20.832H788.32a15.744,15.744,0,0,1,.192,2.048v3.776c-.9.032-1.76.064-2.656.064a52.1,52.1,0,0,1-5.536-.288l.032,3.008c1.856.128,3.616.224,5.472.224.9,0,1.792-.032,2.688-.064.064,2.5.192,5.248.32,7.488a17.03,17.03,0,0,0-2.592-.192c-4.288,0-6.816,2.176-6.816,5.12,0,3.072,2.528,4.864,6.848,4.864,4.448,0,5.856-2.528,5.856-5.472v-.16a30.425,30.425,0,0,1,4.448,3.552L798.3-3.552A21.112,21.112,0,0,0,792-7.68c-.1-2.464-.32-5.344-.352-8.544,1.856-.128,3.648-.352,5.312-.608v-3.1a49.5,49.5,0,0,1-5.312.736c.032-1.472.064-2.848.1-3.648C791.776-23.488,791.84-24.192,791.936-24.832Zm-15.712.288-3.488-.32c-.032.832-.16,1.856-.256,2.656A98.193,98.193,0,0,0,771.072-8.8,37.454,37.454,0,0,0,772.32,1.376l2.848-.224c-.032-.384-.064-.864-.1-1.184a8.26,8.26,0,0,1,.16-1.472c.352-1.632,1.44-4.9,2.3-7.328l-1.6-1.248c-.512,1.184-1.216,2.784-1.664,4.1a20.822,20.822,0,0,1-.256-3.424,84.6,84.6,0,0,1,1.568-12.672C775.712-22.656,776.032-23.968,776.224-24.544Zm28.032,12.576c.1-1.152.224-2.4.32-3.584h6.24v-9.632h-9.152v2.656H808v4.288h-5.824c-.192,3.168-.608,7.36-1.024,9.952l2.624.416.192-1.472H808c-.288,5.76-.64,8.064-1.184,8.64a1.341,1.341,0,0,1-1.152.384,33.273,33.273,0,0,1-3.488-.16,7.674,7.674,0,0,1,.9,2.912,25.337,25.337,0,0,0,3.9-.032,2.743,2.743,0,0,0,2.176-1.088c.928-1.056,1.28-4.16,1.632-12.032.032-.384.064-1.248.064-1.248Zm11.008,3.2v-3.808h4v3.808Zm10.88-3.808v3.808h-4.032v-3.808ZM830.88,1.568A27.818,27.818,0,0,0,826.336-5.7l-2.4,1.088a31.4,31.4,0,0,1,1.856,2.592l-3.68.288V-6.272h6.88v-8.8h-6.88V-18.24l4.768-.32a14.786,14.786,0,0,1,1.056,1.888l2.656-1.28a29.854,29.854,0,0,0-4.96-6.592l-2.464,1.152a29.818,29.818,0,0,1,1.984,2.368c-2.624.16-5.216.288-7.584.416,1.056-1.7,2.208-3.68,3.2-5.536l-3.168-.8a40.405,40.405,0,0,1-3.2,6.464l-2.72.128.384,2.816,7.2-.48v2.944h-6.72v8.8h6.72v4.736c-3.04.224-5.824.384-8,.512l.352,2.912c4.16-.352,10.048-.8,15.712-1.312a16.908,16.908,0,0,1,.96,2.176Zm30.944-23.2-2.016-1.888a16.466,16.466,0,0,1-2.656.224H839.264a28.677,28.677,0,0,1-3.776-.288v3.552c1.376-.1,2.5-.192,3.776-.192H856.8a19.59,19.59,0,0,1-6.528,6.624l2.656,2.144a31.69,31.69,0,0,0,7.84-8.832C861.024-20.672,861.536-21.28,861.824-21.632ZM848.9-17.376h-3.648a14.214,14.214,0,0,1,.192,2.56c0,5.312-.736,9.344-5.312,12.288A12.148,12.148,0,0,1,837.056-.96L840,1.44C848.416-2.88,848.9-9.024,848.9-17.376ZM879.84-.7l2.112,1.76a9.951,9.951,0,0,1,1.216-.8A33.67,33.67,0,0,0,894.08-8.576l-1.952-2.752a22.512,22.512,0,0,1-8.7,7.36v-17.7a19.279,19.279,0,0,1,.16-2.56h-3.712a23.459,23.459,0,0,1,.192,2.56V-2.72A9.226,9.226,0,0,1,879.84-.7ZM865.088-.992l3.072,2.048a17.978,17.978,0,0,0,5.7-8.96c.864-3.2.992-10.016.992-13.664a23.954,23.954,0,0,1,.16-2.56H871.3a9.972,9.972,0,0,1,.256,2.592c0,3.68,0,9.92-.928,12.768A14.812,14.812,0,0,1,865.088-.992ZM16.576,20.624H12.832a20.353,20.353,0,0,1,.224,2.752q0,1.632-.1,3.072H7.808c-1.248,0-2.688-.1-3.9-.192v3.328c1.216-.1,2.72-.128,3.9-.128h4.864c-.8,5.792-2.752,9.664-5.856,12.576a17.076,17.076,0,0,1-3.68,2.688l2.944,2.4c5.5-3.872,8.672-8.768,9.856-17.664h8.192c0,3.456-.416,10.688-1.5,12.928A1.691,1.691,0,0,1,20.8,43.472a36.637,36.637,0,0,1-4.64-.384l.384,3.36c1.632.128,3.488.224,5.216.224A3.568,3.568,0,0,0,25.472,44.5c1.408-3.136,1.824-12.288,1.92-15.52.032-.384.128-1.088.224-1.632l-2.24-1.088a14.549,14.549,0,0,1-2.208.192H16.256c.064-.992.128-2.048.16-3.136C16.448,22.544,16.512,21.36,16.576,20.624Zm40.64.864H53.408a24.743,24.743,0,0,1,.192,2.944v5.5c0,5.6-.416,8.1-2.656,10.656a14.926,14.926,0,0,1-7.68,4.16l2.656,2.784a17.477,17.477,0,0,0,7.648-4.672c2.368-2.688,3.52-5.408,3.52-12.736v-5.7C57.088,23.28,57.152,22.32,57.216,21.488Zm-14.848.256h-3.68a20.669,20.669,0,0,1,.128,2.368v10.72c0,.928-.1,2.048-.128,2.592h3.68c-.064-.64-.128-1.76-.128-2.592V24.112C42.24,23.216,42.3,22.416,42.368,21.744Zm24.8,12.48a40.579,40.579,0,0,0,1.5-8.7L66.5,25.2a36.319,36.319,0,0,1-1.6,8.256Zm19.488,10.4V37.36h6.208V34.576H86.656V28.56h6.912V25.744H86.656V19.28H83.68v6.464H80.32a43.1,43.1,0,0,0,.96-4.672l-2.912-.48A37.666,37.666,0,0,1,76.256,29.1a28.68,28.68,0,0,0-2.08-4.8l-1.888.768v-5.92H69.312V48.5h2.976V25.552a29.118,29.118,0,0,1,1.92,5.024L76,29.712a14.223,14.223,0,0,1-1.184,2.208A17.316,17.316,0,0,1,77.472,33.3,28.779,28.779,0,0,0,79.52,28.56h4.16v6.016h-6.5V37.36h6.5v7.264h-8.9V47.44H94.4V44.624Zm15.552-6.5a5.008,5.008,0,1,0,0,10.016,5.008,5.008,0,0,0,0-10.016Zm0,8.1a3.072,3.072,0,1,1,3.072-3.072A3.073,3.073,0,0,1,102.208,46.224ZM142.816,42.1c0-1.248,1.28-2.112,3.36-2.112a9.744,9.744,0,0,1,2.688.384c.032.416.032.8.032,1.088,0,1.632-.64,2.752-2.88,2.752C144.064,44.208,142.816,43.5,142.816,42.1ZM141.536,22.7v2.848c2.368.1,4.768.128,7.04.064v4.7a75.142,75.142,0,0,1-7.552-.16l.032,2.944c2.528.128,5.088.128,7.552.1.032,1.5.1,3.136.16,4.608a15.783,15.783,0,0,0-2.5-.192c-4.288,0-6.3,2.176-6.3,4.672,0,3.2,2.784,4.736,6.4,4.736,3.712,0,5.536-1.7,5.536-4.384,0-.32,0-.672-.032-1.056a21.116,21.116,0,0,1,4.9,3.776l1.7-2.784a20.07,20.07,0,0,0-6.72-4.064c-.1-1.664-.192-3.52-.256-5.44,2.144-.1,4.1-.256,5.728-.448V29.712c-1.728.192-3.68.384-5.728.48v-4.7c1.888-.1,3.584-.224,5.024-.384V22.256A69.614,69.614,0,0,1,141.536,22.7Zm-5.024-1.184-3.52-.288c-.032.8-.16,1.856-.256,2.624A97.84,97.84,0,0,0,131.36,37.2a37.454,37.454,0,0,0,1.248,10.176l2.88-.224c-.032-.384-.064-.864-.064-1.184a6.087,6.087,0,0,1,.16-1.472,71.632,71.632,0,0,1,2.272-7.3l-1.6-1.312c-.512,1.216-1.216,2.88-1.664,4.192a25.961,25.961,0,0,1-.256-3.488,79.942,79.942,0,0,1,1.536-12.608A23.268,23.268,0,0,1,136.512,21.52Zm33.632-.672-3.168,1.312c1.5,3.424,3.1,7.04,4.576,9.728-3.264,2.3-5.44,4.928-5.44,8.32,0,5.12,4.544,6.88,10.72,6.88a61.092,61.092,0,0,0,10.176-.768l.032-3.648A47.673,47.673,0,0,1,176.7,43.824c-4.768,0-7.168-1.472-7.168-3.968,0-2.336,1.792-4.352,4.608-6.208,3.04-1.984,7.3-3.968,9.408-5.056,1.024-.512,1.92-.992,2.752-1.5l-1.76-2.912a17.744,17.744,0,0,1-2.56,1.7c-1.664.928-4.832,2.5-7.648,4.192A74.767,74.767,0,0,1,170.144,20.848Zm39.776,1.376-3.584-1.44a29.649,29.649,0,0,1-1.344,2.816c-1.7,3.072-8.512,16.16-10.88,22.624l3.52,1.184a58.714,58.714,0,0,1,2.624-7.2c1.216-2.56,3.36-4.992,5.76-4.992a1.941,1.941,0,0,1,2.112,2.016c.1,1.568.064,4.1.192,5.92.1,2.08,1.44,4.224,4.928,4.224,4.768,0,7.584-3.616,9.248-8.928l-2.688-2.208c-.864,3.68-2.816,7.712-6.048,7.712a2.088,2.088,0,0,1-2.336-2.048c-.128-1.472-.064-3.968-.128-5.632-.128-2.592-1.6-4.032-3.872-4.032a7.034,7.034,0,0,0-4.256,1.536c1.6-2.976,4.256-7.744,5.728-9.984C209.28,23.216,209.632,22.64,209.92,22.224Zm22.4-.96-3.168,1.344c1.472,3.424,3.1,7.008,4.576,9.7-3.264,2.336-5.44,4.96-5.44,8.352,0,5.12,4.544,6.912,10.72,6.912a60.921,60.921,0,0,0,10.176-.8l.032-3.616a50.37,50.37,0,0,1-10.336,1.12c-4.768,0-7.168-1.472-7.168-4,0-2.336,1.792-4.32,4.608-6.176a82.667,82.667,0,0,1,8.48-4.608c1.024-.544,1.92-.992,2.752-1.5l-1.6-2.944a18.211,18.211,0,0,1-2.592,1.7c-1.632.9-4.256,2.176-6.88,3.776A73.032,73.032,0,0,1,232.32,21.264Zm15.712-.384-2.08.864a39.267,39.267,0,0,1,2.56,4.48l2.08-.928A43.853,43.853,0,0,0,248.032,20.88Zm3.648-1.344-2.08.864a30.316,30.316,0,0,1,2.624,4.416l2.08-.928A42.482,42.482,0,0,0,251.68,19.536Zm32.672,15.232c0-6.688-4.864-12.064-12.544-12.064-8.032,0-14.3,6.144-14.3,13.312,0,5.344,2.912,8.864,6.08,8.864s5.824-3.616,7.744-10.144a63.718,63.718,0,0,0,1.92-8.992c4.928.608,7.744,4.288,7.744,8.928,0,5.152-3.648,8.16-7.744,9.088a19.778,19.778,0,0,1-2.848.448l1.888,3.008C280.064,46.1,284.352,41.488,284.352,34.768Zm-23.616.928c0-3.968,3.36-8.96,9.12-9.888a50.947,50.947,0,0,1-1.76,8.256c-1.472,4.928-2.976,7.008-4.416,7.008C262.3,41.072,260.736,39.376,260.736,35.7Zm29.088,1.728A23.581,23.581,0,0,1,288,44.912,16.54,16.54,0,0,1,290.272,46a28.112,28.112,0,0,0,2.08-8.128Zm7.008.608a35.656,35.656,0,0,1,1.984,6.24l2.368-.864A36.375,36.375,0,0,0,299.1,37.3Zm13.472,5.6V35.248h3.68v8.384Zm-6.08-8.384h3.456v8.384h-3.456ZM307.68,24.4v8.128h-3.456V24.4Zm6.3,8.128H310.3V24.4h3.68ZM301.536,21.616v13.7a29.732,29.732,0,0,0-3.04-6.048l-2.208.96q.624,1.056,1.248,2.208l-4.064.288c2.08-2.624,4.384-5.92,6.144-8.672l-2.5-1.184a54.829,54.829,0,0,1-3.3,5.6,18.64,18.64,0,0,0-1.568-1.856c1.152-1.792,2.5-4.288,3.648-6.464l-2.656-1.024a44.472,44.472,0,0,1-2.656,5.856c-.32-.288-.608-.544-.9-.8l-1.44,1.984A30.975,30.975,0,0,1,292.32,30.7c-.576.8-1.12,1.536-1.664,2.208-.928.064-1.792.128-2.528.16l.384,2.656c1.472-.128,3.168-.288,4.96-.48V48.464h2.656V34.992l2.464-.256a20.033,20.033,0,0,1,.736,2.24l2.208-1.056V48.08h2.688v-1.7h9.76v1.44h2.784V21.616Zm32.16,22.3h2.56v-4.8a20.821,20.821,0,0,0,5.728,4.512,9.11,9.11,0,0,1,1.664-1.856,19.7,19.7,0,0,1-6.24-4.384h5.824V35.216h-6.976v-2.3a48.739,48.739,0,0,0,5.568-1.024l-1.856-1.728a67.987,67.987,0,0,1-12.16,1.536,9.392,9.392,0,0,1,.608,1.824c1.664-.064,3.488-.16,5.28-.352v2.048H326.88v2.176h5.632a17.891,17.891,0,0,1-6.3,4.416,13.266,13.266,0,0,1,1.664,1.888,20.031,20.031,0,0,0,5.824-4.48Zm10.752-14.368V44.784H325.664V29.552ZM322.88,48.528h2.784V47.344h18.784v1.184h2.912v-21.5H322.88ZM341.728,21.1V19.152h-2.976V21.1H331.2V19.152h-2.944V21.1h-7.232v2.624h7.232v2.3H331.2v-2.3h7.552v2.3h2.976v-2.3h7.328V21.1ZM359.52,47.952l2.72-2.3a59.046,59.046,0,0,0-7.072-7.072l-2.624,2.3A58.41,58.41,0,0,1,359.52,47.952Zm40.1-27.328h-3.744a20.355,20.355,0,0,1,.224,2.752q0,1.632-.1,3.072h-5.152c-1.248,0-2.688-.1-3.9-.192v3.328c1.216-.1,2.72-.128,3.9-.128h4.864c-.8,5.792-2.752,9.664-5.856,12.576a17.076,17.076,0,0,1-3.68,2.688l2.944,2.4c5.5-3.872,8.672-8.768,9.856-17.664h8.192c0,3.456-.416,10.688-1.5,12.928a1.691,1.691,0,0,1-1.824,1.088,36.636,36.636,0,0,1-4.64-.384l.384,3.36c1.632.128,3.488.224,5.216.224a3.568,3.568,0,0,0,3.712-2.176c1.408-3.136,1.824-12.288,1.92-15.52.032-.384.128-1.088.224-1.632l-2.24-1.088a14.549,14.549,0,0,1-2.208.192H399.3c.064-.992.128-2.048.16-3.136C399.488,22.544,399.552,21.36,399.616,20.624Zm38.88-.064-2.08.864a38.492,38.492,0,0,1,2.56,4.416l2.08-.9A46.073,46.073,0,0,0,438.5,20.56Zm3.616-1.344-2.048.864a29.811,29.811,0,0,1,2.592,4.384l2.08-.9A39.3,39.3,0,0,0,442.112,19.216Zm-17.76,2.528h-3.744a19.1,19.1,0,0,1,.224,2.944v17.5c0,2.688,1.472,3.968,4.064,4.448a34.87,34.87,0,0,0,5.248.32,93.714,93.714,0,0,0,11.232-.64V42.64a53.442,53.442,0,0,1-11.04,1.056,27.6,27.6,0,0,1-4-.224c-1.5-.32-2.176-.7-2.176-2.24V34.7a123.692,123.692,0,0,0,12.832-4.032c1.024-.384,2.3-.96,3.36-1.376l-1.408-3.232a17.674,17.674,0,0,1-3.1,1.568,87.87,87.87,0,0,1-11.68,3.744V24.688A29.035,29.035,0,0,1,424.352,21.744ZM455.52,47.952l2.72-2.3a59.046,59.046,0,0,0-7.072-7.072l-2.624,2.3A58.41,58.41,0,0,1,455.52,47.952Zm41.248-27.808H492.9a14.515,14.515,0,0,1,.224,2.656v2.752h-6.976a30.407,30.407,0,0,1-3.1-.16,23.818,23.818,0,0,1,.128,2.592v5.6c0,.7-.064,1.632-.128,2.3h3.488a14.686,14.686,0,0,1-.128-2.112V28.528h17.024a22.2,22.2,0,0,1-2.944,8.832,16.454,16.454,0,0,1-8.064,6.016,20.09,20.09,0,0,1-3.84,1.056l2.624,3.04c5.76-1.568,10.368-4.864,12.832-9.312a29.765,29.765,0,0,0,3.072-9.376,12.03,12.03,0,0,1,.544-2.176l-2.208-1.376a7.026,7.026,0,0,1-2.4.32h-6.464V22.8A22.892,22.892,0,0,1,496.768,20.144Zm16.7,13.92,1.568,3.168a65.47,65.47,0,0,0,11.808-4.96V43.408a37.078,37.078,0,0,1-.192,3.776h3.968a24.06,24.06,0,0,1-.224-3.776V30.128a53.983,53.983,0,0,0,8.608-7.008l-2.688-2.56a39.5,39.5,0,0,1-8.9,7.616A52.842,52.842,0,0,1,513.472,34.064ZM559.52,45.3l2.112,1.76a9.951,9.951,0,0,1,1.216-.8,33.669,33.669,0,0,0,10.912-8.832l-1.952-2.752a22.512,22.512,0,0,1-8.7,7.36v-17.7a19.279,19.279,0,0,1,.16-2.56h-3.712a23.459,23.459,0,0,1,.192,2.56V43.28A9.226,9.226,0,0,1,559.52,45.3Zm-14.752-.288,3.072,2.048a17.978,17.978,0,0,0,5.7-8.96c.864-3.2.992-10.016.992-13.664a23.954,23.954,0,0,1,.16-2.56h-3.712a9.972,9.972,0,0,1,.256,2.592c0,3.68,0,9.92-.928,12.768A14.812,14.812,0,0,1,544.768,45.008ZM601.12,24.464l-2.08-1.536a9.706,9.706,0,0,1-2.784.32H584.384a34.236,34.236,0,0,1-3.488-.224V26.64c.512-.032,2.24-.192,3.488-.192h11.744A26.327,26.327,0,0,1,591.04,34.9a35.956,35.956,0,0,1-13.152,9.376l2.592,2.72a42.008,42.008,0,0,0,12.32-9.216,71.817,71.817,0,0,1,8.48,9.344l2.816-2.5a85.055,85.055,0,0,0-9.152-9.376,43.8,43.8,0,0,0,5.248-9.12A11.045,11.045,0,0,1,601.12,24.464Zm19.936-3.392-3.744-.384a35.928,35.928,0,0,1-.768,6.88c-1.792.16-3.52.288-4.544.32-1.088.032-2.048.064-3.1,0l.32,3.456c.864-.16,2.368-.352,3.168-.448.736-.1,2.048-.256,3.488-.416-1.12,4.352-3.424,11.264-6.624,15.584l3.3,1.312c3.168-5.12,5.44-12.512,6.624-17.216,1.184-.128,2.24-.192,2.912-.192,2.016,0,3.264.48,3.264,3.232,0,3.328-.448,7.392-1.408,9.408a2.571,2.571,0,0,1-2.624,1.5,16.9,16.9,0,0,1-3.936-.64l.544,3.328a17.7,17.7,0,0,0,3.808.48c2.208,0,3.872-.608,4.928-2.816,1.344-2.688,1.824-7.84,1.824-11.616,0-4.48-2.368-5.728-5.44-5.728-.736,0-1.92.064-3.232.192.288-1.5.576-3.04.768-4.032C620.736,22.576,620.9,21.744,621.056,21.072Zm14.592-2.432-2.08.864a32.314,32.314,0,0,1,2.656,4.416l2.08-.928A49.655,49.655,0,0,0,635.648,18.64ZM632,19.984l-2.08.864a28.992,28.992,0,0,1,2.272,3.9c-.032-.064-.1-.128-.128-.192l-2.976,1.312c2.24,2.688,4.672,8.288,5.568,11.712l3.168-1.5a55.979,55.979,0,0,0-5.28-10.816l2.048-.864A46.882,46.882,0,0,0,632,19.984Zm24.64,24.672V37.3h9.952V34.448H656.64v-6.4h11.136V25.136H656.64V19.184h-3.072v5.952h-5.792c.608-1.536,1.184-3.168,1.664-4.8l-3.072-.7c-1.184,4.48-3.2,8.864-5.792,11.584a19.056,19.056,0,0,1,2.72,1.792,27.628,27.628,0,0,0,3.168-4.96h7.1v6.4h-9.12V37.3h9.12v7.36H640.9v2.88h28.416v-2.88Zm37.536-18.5H680.192V23.984h13.984Zm0,4.384H680.192V28.336h13.984Zm0,4.384H680.192V32.72h13.984Zm3.008-13.28H687.9a25.7,25.7,0,0,0,1.216-2.3l-3.552-.544a18.952,18.952,0,0,1-.864,2.848h-7.36V37.232h19.84ZM683.872,38.8a20.181,20.181,0,0,1,4.576,4.672l2.336-1.632a20.533,20.533,0,0,0-4.7-4.512Zm-9.216,8.672c2.016-1.792,3.232-4.608,4-7.136l-2.624-.96a13.279,13.279,0,0,1-3.84,6.368Zm10.688-1.76c-1.632,0-1.92-.128-1.92-.992V39.792h-2.912v4.96c0,2.816.9,3.616,4.544,3.616h5.792c2.816,0,3.648-.9,4.032-4.512a8.574,8.574,0,0,1-2.688-1.056c-.128,2.56-.352,2.912-1.632,2.912Zm8.608-5.184a25.021,25.021,0,0,1,5.5,6.976l2.56-1.7a24.723,24.723,0,0,0-5.7-6.784ZM705.44,24.56l.32,3.488c3.584-.768,11.04-1.536,14.272-1.856a12.836,12.836,0,0,0-5.44,10.4c0,7.04,6.56,10.4,12.832,10.72l1.152-3.424c-5.28-.224-10.72-2.176-10.72-8a10.61,10.61,0,0,1,7.072-9.632,30.837,30.837,0,0,1,6.24-.448V22.576c-2.208.064-5.408.256-8.832.544-5.888.512-11.584,1.056-13.92,1.28C707.776,24.464,706.656,24.528,705.44,24.56Zm21.12,4.8-1.92.832a30.253,30.253,0,0,1,2.56,4.48l1.984-.9A44.673,44.673,0,0,0,726.56,29.36Zm3.552-1.376-1.92.864a30.03,30.03,0,0,1,2.688,4.416l1.952-.928A46.217,46.217,0,0,0,730.112,27.984Zm20.672-4.224.1.288a65.121,65.121,0,0,1-10.3-.416l.192,2.912a75.846,75.846,0,0,0,10.912.256c.224.672.448,1.408.736,2.24.16.448.352.928.544,1.408a74.778,74.778,0,0,1-12.992-.192l.16,2.976a102.149,102.149,0,0,0,14.016,0,32.982,32.982,0,0,0,2.176,4.032c-.992-.1-2.912-.288-4.448-.448l-.256,2.432a70.654,70.654,0,0,1,7.232.992l1.6-2.368a8.349,8.349,0,0,1-1.312-1.5,30.108,30.108,0,0,1-1.984-3.488,52.115,52.115,0,0,0,5.536-1.056l-.512-3.008A35.234,35.234,0,0,1,755.9,30.16c-.224-.608-.448-1.184-.64-1.728-.224-.576-.416-1.216-.64-1.888a44.258,44.258,0,0,0,6.144-1.248l-.416-2.912a35.168,35.168,0,0,1-6.464,1.44,29.788,29.788,0,0,1-.672-3.616l-3.424.384C750.176,21.648,750.5,22.736,750.784,23.76Zm-5.5,13.6-3.136-.608a9.68,9.68,0,0,0-1.344,4.8c.064,4.32,3.776,6.208,10.112,6.208a50.521,50.521,0,0,0,7.616-.576l.16-3.232a37.8,37.8,0,0,1-7.808.7c-4.672,0-6.976-1.184-6.976-3.712A6.143,6.143,0,0,1,745.28,37.36Zm36.48-16.928-3.52-.352a26.115,26.115,0,0,1-.928,5.472c-1.12.1-2.24.128-3.3.128-1.28,0-2.816-.064-4.064-.192l.224,2.976c1.28.064,2.624.1,3.84.1.768,0,1.536-.032,2.336-.064a48.055,48.055,0,0,1-6.72,11.68l3.072,1.568a57.254,57.254,0,0,0,6.944-13.6,42.952,42.952,0,0,0,5.728-1.152l-.1-2.944a30.6,30.6,0,0,1-4.7,1.088C781.056,23.344,781.5,21.552,781.76,20.432Zm-1.728,22.176c0-1.312,1.44-2.272,3.552-2.272a11.142,11.142,0,0,1,2.976.416c.032.416.032.8.032,1.088,0,1.728-.8,3.072-3.232,3.072C781.184,44.912,780.032,43.984,780.032,42.608Zm9.248-12.256h-3.136c.064,2.112.224,5.12.32,7.648a18.347,18.347,0,0,0-2.72-.224c-3.968,0-6.688,2.112-6.688,5.12,0,3.328,3.008,4.928,6.72,4.928,4.224,0,5.856-2.208,5.856-4.928V42a24.974,24.974,0,0,1,4.8,3.584l1.7-2.72a20.852,20.852,0,0,0-6.624-4.032c-.1-1.824-.192-3.68-.224-4.736C789.248,32.816,789.216,31.7,789.28,30.352Zm6.016,1.216,1.824-2.656a56.651,56.651,0,0,0-7.68-4.288l-1.632,2.464A40.692,40.692,0,0,1,795.3,31.568Zm11.392-8.128-3.9-.064a16.375,16.375,0,0,1,.256,3.008c0,1.92.032,5.76.352,8.576.864,8.416,3.84,11.488,7.072,11.488,2.336,0,4.32-1.888,6.336-7.36l-2.528-2.976c-.736,2.912-2.144,6.4-3.744,6.4-2.144,0-3.456-3.392-3.936-8.416a71.651,71.651,0,0,1-.224-7.2A26.189,26.189,0,0,1,806.688,23.44Zm16.384.8L819.9,25.3c3.232,3.84,5.056,10.944,5.6,16.448l3.3-1.28C828.384,35.28,826.016,27.952,823.072,24.24Zm34.752.64H855.2V22.256h2.624Zm-4.64,0h-2.592V22.256h2.592Zm-4.576,0h-2.5V22.256h2.5Zm11.744-4.7H843.68v6.816h16.672ZM842.208,30.864h19.52V28.432h-19.52Zm.64,7.456c-1.28.352-2.592.7-3.872,1.056V33.168h3.1V30.544h-3.1V24.016h3.584V21.392H832.512v2.624h3.776v6.528h-3.456v2.624h3.456v6.944c-1.536.384-2.976.736-4.16,1.024l.64,2.816c2.976-.8,6.816-1.92,10.4-2.976Zm3.968-3.776H856.96v2.688H846.816Zm12.192,5.024a31.674,31.674,0,0,1-3.648,2.656,12.671,12.671,0,0,1-1.984-2.784h6.336V32.368h-15.52V39.44h5.5a30.94,30.94,0,0,1-9.7,5.248,10.836,10.836,0,0,1,1.76,2.08,33.244,33.244,0,0,0,6.72-3.552v5.312h2.784V41.04l.256-.224a16.15,16.15,0,0,0,8.32,7.712,11.148,11.148,0,0,1,1.92-2.336,13.964,13.964,0,0,1-4.832-2.528,29.211,29.211,0,0,0,4.16-2.56Zm28.128-15.776a27.757,27.757,0,0,1-1.28,2.976l.7.16h-5.728l.992-.256a11.311,11.311,0,0,0-1.12-2.88Zm6.528,3.136H888.64c.448-.8.928-1.824,1.5-2.848l-1.376-.288h4.224V21.456h-7.744v-2.24h-2.912v2.24H875.1v2.336h4.288l-1.408.32a12.058,12.058,0,0,1,1.056,2.816h-4.864V29.36h19.488Zm-19.3,9.344-3.36,1.472v-8.16h3.136V26.8h-3.136V19.536h-2.752V26.8h-3.488v2.784h3.488V38.96c-1.536.64-2.976,1.248-4.128,1.664l1.056,2.944c2.816-1.312,6.5-3.008,9.856-4.64Zm4.672.384h10.08V38.7H879.04Zm0-3.872h10.08V34.8H879.04Zm9.6,12.992c-.7,0-.8-.1-.8-.832v-4.32H892v-9.76H876.224v9.76h3.008c-.672,2.688-2.272,4.448-7.328,5.44a9.877,9.877,0,0,1,1.632,2.5c5.888-1.472,7.84-4.032,8.608-7.936h2.88v4.352c0,2.56.576,3.36,3.168,3.36h2.848c2.016,0,2.752-.9,3.008-4.48a7.759,7.759,0,0,1-2.464-1.056c-.1,2.624-.224,2.976-.832,2.976ZM15.1,66.528l-3.328-.256a15.936,15.936,0,0,1-.736,3.808c-.64.032-1.28.032-1.888.032a41.362,41.362,0,0,1-5.5-.352v3.008c1.792.128,4,.192,5.344.192H9.92A32.152,32.152,0,0,1,2.688,82.3L5.44,84.352a34.8,34.8,0,0,1,2.912-3.424,8.156,8.156,0,0,1,5.312-2.3,2.575,2.575,0,0,1,2.624,1.6c-3.712,1.888-7.552,4.384-7.552,8.32,0,3.968,3.712,5.088,8.48,5.088a81.487,81.487,0,0,0,8.9-.576l.1-3.232a54.491,54.491,0,0,1-8.9.832c-3.232,0-5.312-.448-5.312-2.624,0-1.888,1.728-3.36,4.48-4.864-.032,1.568-.064,3.392-.128,4.512h3.04c-.032-1.536-.064-4.1-.1-5.92,2.24-1.024,4.32-1.856,5.952-2.5.96-.384,2.336-.9,3.264-1.184L27.2,75.136c-1.024.512-1.952.928-3.04,1.408-1.5.7-3.136,1.376-5.12,2.3a4.212,4.212,0,0,0-4.288-2.72,9.4,9.4,0,0,0-4.1.96,25.678,25.678,0,0,0,2.464-4.224,98.873,98.873,0,0,0,10.528-.832V69.056a73.774,73.774,0,0,1-9.408.928C14.656,68.608,14.912,67.424,15.1,66.528ZM40.768,65.28a35.6,35.6,0,0,1-7.616,12.352A17.93,17.93,0,0,1,34.816,80.7a28.922,28.922,0,0,0,2.624-3.136v16.9h3.008v-21.6a50.885,50.885,0,0,0,3.168-6.688Zm21.984,7.968V70.4H49.888c.608-1.344,1.152-2.752,1.664-4.128L48.7,65.5a34,34,0,0,1-6.912,12.16,17.915,17.915,0,0,1,2.3,2.016,33.121,33.121,0,0,0,4.352-6.432H50.24V94.5h3.04V87.072h9.152V84.288H53.28V80.032h8.7v-2.72h-8.7V73.248ZM75.136,66.56l-3.488-.16a27.793,27.793,0,0,1-.256,3.04,84.436,84.436,0,0,0-.928,10.3,40.222,40.222,0,0,0,.352,5.184l3.136-.224a14.819,14.819,0,0,1-.128-3.68c.288-4.224,3.84-9.984,7.744-9.984,3.04,0,4.736,3.264,4.736,8.256,0,7.936-5.248,10.528-12.256,11.616l1.92,2.912c8.16-1.5,13.728-5.6,13.728-14.528,0-6.88-3.232-11.168-7.584-11.168-3.872,0-6.944,3.424-8.352,6.336A61.933,61.933,0,0,1,75.136,66.56ZM121.5,81.248v8.416h-8.16V79.328h9.984v-11.2h-3.136v8.32h-6.848V65.376H110.3V76.448h-6.528V68.16H100.8V79.328h9.5V89.664h-7.712V81.248H99.584v13.28h3.008V92.576H121.5v1.888h3.072V81.248ZM139.328,66.88l-4.1-.032a18.518,18.518,0,0,1,.352,3.712c0,3.072-.32,11.328-.32,15.872,0,5.312,3.264,7.392,8.128,7.392a16.25,16.25,0,0,0,13.6-7.168l-2.272-2.784c-2.3,3.424-5.664,6.592-11.264,6.592-2.784,0-4.864-1.152-4.864-4.544,0-4.416.224-11.808.384-15.36A29.185,29.185,0,0,1,139.328,66.88Zm29.248,21.632c0-1.28,1.472-2.336,4.192-2.336a14.5,14.5,0,0,1,2.912.288c.032.7.032,1.344.032,1.792,0,2.048-1.376,2.592-3.168,2.592C169.792,90.848,168.576,89.888,168.576,88.512ZM178.656,66.4h-3.424a10.5,10.5,0,0,1,.16,2.016v1.952h-1.376a57.979,57.979,0,0,1-8.032-.7l.032,2.912c2.08.256,5.92.576,8.032.576h1.312v3.936h-1.632a62.56,62.56,0,0,1-7.9-.576l.032,3.008c2.208.256,5.76.416,7.808.416h1.76c.032,1.184.1,2.5.128,3.744-.768-.064-1.536-.128-2.368-.128-4.768,0-7.616,2.08-7.616,5.152,0,3.2,2.592,4.992,7.392,4.992,4.192,0,5.952-2.208,5.952-4.64,0-.448-.032-.992-.064-1.664a24.6,24.6,0,0,1,7.168,4.672l1.856-2.848a25.694,25.694,0,0,0-9.184-4.9c-.064-1.44-.16-2.976-.224-4.448,3.072-.128,5.728-.352,8.672-.7l.032-2.976c-2.784.384-5.6.672-8.768.8V73.024c3.1-.128,6.08-.416,8.448-.7V69.376a70.311,70.311,0,0,1-8.416.9c.032-.7.032-1.312.064-1.7C178.528,67.68,178.592,66.976,178.656,66.4Zm33.792.064h-3.68c.064.32.16,1.312.256,2.336.032.384.032.928.064,1.632-4.576.064-10.528.224-14.144.288l.1,3.072c3.968-.256,9.216-.448,14.08-.512,0,.928.032,1.888.032,2.72a6.4,6.4,0,0,0-1.792-.224,5.779,5.779,0,0,0-5.952,5.76,5.344,5.344,0,0,0,5.376,5.568,5.013,5.013,0,0,0,2.24-.48c-1.536,2.464-4.48,3.872-8.256,4.7l2.72,2.688c7.584-2.208,9.856-7.232,9.856-11.488a7.881,7.881,0,0,0-1.12-4.256c0-1.44,0-3.3-.032-5.024,4.64,0,7.68.064,9.568.16l.064-3.008h-9.6c0-.64,0-1.216.032-1.6A18.648,18.648,0,0,1,212.448,66.464Zm-8.032,15.008a2.883,2.883,0,0,1,2.912-3.008,2.638,2.638,0,0,1,2.5,1.536c.416,3.008-.832,4.32-2.5,4.32A2.808,2.808,0,0,1,204.416,81.472Zm22.592,2.656a5.008,5.008,0,1,0,0,10.016,5.008,5.008,0,0,0,0-10.016Zm0,8.1a3.072,3.072,0,1,1,3.072-3.072A3.073,3.073,0,0,1,227.008,92.224Z" transform="translate(100 3545)" fill="#333"/>
  </g>
</svg>
